<?xml version="1.0" encoding="UTF-8" standalone="no"?>
<svg
   xmlns:dc="http://purl.org/dc/elements/1.1/"
   xmlns:cc="http://creativecommons.org/ns#"
   xmlns:rdf="http://www.w3.org/1999/02/22-rdf-syntax-ns#"
   xmlns:svg="http://www.w3.org/2000/svg"
   xmlns="http://www.w3.org/2000/svg"
   xmlns:sodipodi="http://sodipodi.sourceforge.net/DTD/sodipodi-0.dtd"
   xmlns:inkscape="http://www.inkscape.org/namespaces/inkscape"
   width="512"
   height="512"
   viewBox="0 0 511.99999 511.99999"
   id="svg2"
   version="1.1"
   inkscape:version="1.0.1 (3bc2e813f5, 2020-09-07)"
   sodipodi:docname="favicon.svg"
   inkscape:export-filename="/home/mrzapp/Development/Web/hashbrown-cms/public/favicon.png"
   inkscape:export-xdpi="22.5"
   inkscape:export-ydpi="22.5">
  <defs
     id="defs4" />
  <sodipodi:namedview
     id="base"
     pagecolor="#ffffff"
     bordercolor="#666666"
     borderopacity="1.0"
     inkscape:pageopacity="0.0"
     inkscape:pageshadow="2"
     inkscape:zoom="1.4"
     inkscape:cx="171.41872"
     inkscape:cy="202.29067"
     inkscape:document-units="px"
     inkscape:current-layer="g6431"
     showgrid="true"
     units="px"
     inkscape:window-width="1900"
     inkscape:window-height="1157"
     inkscape:window-x="1376"
     inkscape:window-y="33"
     inkscape:window-maximized="0"
     inkscape:snap-bbox="false"
     objecttolerance="20"
     inkscape:object-nodes="true"
     inkscape:snap-object-midpoints="true"
     inkscape:document-rotation="0">
    <inkscape:grid
       type="xygrid"
       id="grid4136"
       empspacing="8" />
  </sodipodi:namedview>
  <metadata
     id="metadata7">
    <rdf:RDF>
      <cc:Work
         rdf:about="">
        <dc:format>image/svg+xml</dc:format>
        <dc:type
           rdf:resource="http://purl.org/dc/dcmitype/StillImage" />
        <dc:title />
      </cc:Work>
    </rdf:RDF>
  </metadata>
  <g
     inkscape:label="Layer 1"
     inkscape:groupmode="layer"
     id="layer1"
     transform="translate(0,-540.36219)">
    <g
       id="g6431"
       transform="matrix(0.70710678,-0.70710678,0.70710678,0.70710678,-487.7191,432.22292)">
      <path
         style="opacity:1;fill:#0263b9;fill-opacity:1;stroke:none;stroke-width:11.1304;stroke-linecap:round;stroke-linejoin:round;stroke-miterlimit:4;stroke-dasharray:none;stroke-opacity:1"
         d="M 449.42281,602.35484 C 349.13811,502.07014 188.03011,501.70886 88.193091,601.54589 l -1.617901,1.61789 c -99.837024,99.83703 -99.475742,260.94504 0.808951,361.22973 100.284689,100.28479 261.392689,100.64609 361.229719,0.80894 l 1.61789,-1.61789 c 99.83703,-99.83702 99.47575,-260.94503 -0.80894,-361.22972 z m -35.41683,35.41683 c 31.70422,31.70422 50.88908,71.20641 57.57924,112.35311 a 33.39132,33.39132 0 0 1 30.55739,33.25132 33.39132,33.39132 0 0 1 -30.55354,33.24746 c -6.69041,41.14614 -25.87928,80.64931 -57.5831,112.35312 -31.7038,31.70381 -71.20506,50.89076 -112.35118,57.58117 a 33.39132,33.39132 0 0 1 -33.25132,30.55745 33.39132,33.39132 0 0 1 -33.24939,-30.55938 C 194.00737,979.86576 154.50519,960.6809 122.80097,928.97668 91.09729,897.273 71.910282,857.77142 65.219809,816.62548 A 33.39132,33.39132 0 0 1 34.664334,783.3761 33.39132,33.39132 0 0 1 65.221727,750.12478 c 6.690159,-41.1467 25.875022,-80.6489 57.579233,-112.35311 31.70381,-31.70382 71.20698,-50.89268 112.35313,-57.58309 a 33.39132,33.39132 0 0 1 33.24938,-30.55548 33.39132,33.39132 0 0 1 33.24939,30.55932 c 41.14651,6.69024 80.64904,25.87517 112.35312,57.57925 z m -7.87041,7.87041 C 376.33593,615.84243 339.31275,597.71437 300.72285,591.24865 a 33.39132,33.39132 0 0 1 -32.31938,25.16761 33.39132,33.39132 0 0 1 -32.33476,-25.1676 c -38.58376,6.46818 -75.60209,24.59816 -105.39734,54.39342 -29.79967,29.79966 -47.927719,66.82277 -54.393414,105.41271 a 33.39132,33.39132 0 0 1 25.167594,32.31938 33.39132,33.39132 0 0 1 -25.165676,32.33285 c 6.467673,38.58506 24.595316,75.60307 54.391506,105.39926 29.79963,29.79963 66.82282,47.92769 105.41271,54.39342 a 33.39132,33.39132 0 0 1 32.31938,-25.16761 33.39132,33.39132 0 0 1 32.33284,25.16569 c 38.58511,-6.46766 75.60303,-24.59528 105.39925,-54.3915 29.79872,-29.79871 47.92912,-66.82221 54.39536,-105.4108 a 33.39132,33.39132 0 0 1 -25.16953,-32.32131 33.39132,33.39132 0 0 1 25.16569,-32.33283 C 454.0594,712.45626 435.93176,675.43826 406.13557,645.64208 Z m -79.41501,23.48823 a 19.480209,19.480209 0 0 1 5.68568,14.06719 l -0.002,36.17582 36.17389,-4e-5 a 19.480209,19.480209 0 0 1 19.75479,19.18218 19.480209,19.480209 0 0 1 -19.7548,19.77402 l -36.17388,4e-5 2e-5,50.08545 36.17389,-4e-5 a 19.480209,19.480209 0 0 1 19.7548,19.18604 19.480209,19.480209 0 0 1 -19.7548,19.77017 l -36.1739,4e-5 6e-5,36.17389 a 19.480209,19.480209 0 0 1 -19.18411,19.75672 19.480209,19.480209 0 0 1 -19.7721,-19.75672 l 4e-5,-36.17388 -50.08544,-2e-5 -4e-5,36.17389 a 19.480209,19.480209 0 0 1 -19.18603,19.75479 19.480209,19.480209 0 0 1 -19.77209,-19.75286 l 4e-5,-36.1739 -36.17198,-0.002 a 19.480209,19.480209 0 1 1 3e-5,-38.9562 l 36.17197,-0.002 -2e-5,-50.08161 -36.17389,5e-5 a 19.480209,19.480209 0 1 1 3e-5,-38.9562 l 36.17198,-0.002 4e-5,-36.17388 a 19.480209,19.480209 0 1 1 38.9562,-3e-5 l 0.002,36.17579 50.08547,2e-5 0.002,-36.1758 a 19.480209,19.480209 0 0 1 33.27053,-14.06722 z m -33.27435,89.20114 -50.08547,-10e-6 2e-5,50.08545 50.08546,2e-5 z"
         id="rect4148" />
    </g>
  </g>
</svg>
