<?xml version="1.0" encoding="UTF-8" standalone="no"?>
<!-- Created with Inkscape (http://www.inkscape.org/) -->

<svg
   xmlns:dc="http://purl.org/dc/elements/1.1/"
   xmlns:cc="http://creativecommons.org/ns#"
   xmlns:rdf="http://www.w3.org/1999/02/22-rdf-syntax-ns#"
   xmlns:svg="http://www.w3.org/2000/svg"
   xmlns="http://www.w3.org/2000/svg"
   xmlns:sodipodi="http://sodipodi.sourceforge.net/DTD/sodipodi-0.dtd"
   xmlns:inkscape="http://www.inkscape.org/namespaces/inkscape"
   width="512"
   height="512"
   viewBox="0 0 511.99999 511.99999"
   id="svg2"
   version="1.1"
   inkscape:version="0.91 r"
   sodipodi:docname="logo_grey.svg">
  <defs
     id="defs4" />
  <sodipodi:namedview
     id="base"
     pagecolor="#ffffff"
     bordercolor="#666666"
     borderopacity="1.0"
     inkscape:pageopacity="0.0"
     inkscape:pageshadow="2"
     inkscape:zoom="0.69999999"
     inkscape:cx="-224.20546"
     inkscape:cy="75.968572"
     inkscape:document-units="px"
     inkscape:current-layer="layer1"
     showgrid="true"
     units="px"
     inkscape:window-width="1920"
     inkscape:window-height="1048"
     inkscape:window-x="1920"
     inkscape:window-y="32"
     inkscape:window-maximized="1"
     inkscape:snap-bbox="false"
     objecttolerance="20"
     inkscape:object-nodes="true"
     inkscape:snap-intersection-paths="false">
    <inkscape:grid
       type="xygrid"
       id="grid4136"
       empspacing="8" />
  </sodipodi:namedview>
  <metadata
     id="metadata7">
    <rdf:RDF>
      <cc:Work
         rdf:about="">
        <dc:format>image/svg+xml</dc:format>
        <dc:type
           rdf:resource="http://purl.org/dc/dcmitype/StillImage" />
        <dc:title />
      </cc:Work>
    </rdf:RDF>
  </metadata>
  <g
     inkscape:label="Layer 1"
     inkscape:groupmode="layer"
     id="layer1"
     transform="translate(0,-540.36219)">
    <path
       style="fill:#616161;fill-rule:evenodd;stroke:none;stroke-width:1px;stroke-linecap:butt;stroke-linejoin:miter;stroke-opacity:1;fill-opacity:1"
       d="M 333.31641 16.533203 C 304.1636 16.533203 275.01159 27.685674 252.70703 49.990234 L 203.34766 99.347656 L 184 80 L 16.533203 246.56445 L 16.533203 246.56641 L 16.533203 291.82031 L 220.17969 495.4668 L 265.43359 495.4668 L 432 328 L 412.65234 308.65234 L 462.00977 259.29297 C 506.61887 214.68386 506.61887 142.68334 462.00977 98.074219 L 413.92773 49.990234 C 391.62317 27.685674 362.46922 16.533203 333.31641 16.533203 z M 321.6875 111.61719 C 326.01087 111.48831 330.20227 113.11513 333.30664 116.12695 C 339.77977 122.40876 339.78396 132.79666 333.31641 139.08398 L 305.03125 167.36914 L 344.63086 206.96875 L 372.91602 178.68359 C 379.07136 172.35154 389.19267 172.20294 395.53125 178.35156 C 402.00626 184.63303 402.01158 195.02248 395.54297 201.31055 L 367.25781 229.5957 L 392.71289 255.05078 C 399.04624 261.20634 399.19485 271.32915 393.04492 277.66797 C 386.7629 284.14243 376.37346 284.14661 370.08594 277.67773 L 344.63086 252.22266 L 310.68945 286.16406 L 336.14453 311.61914 C 342.47788 317.7747 342.62649 327.89751 336.47656 334.23633 C 330.1951 340.71133 319.80565 340.71665 313.51758 334.24805 L 288.06055 308.79102 L 261.58008 335.27148 C 251.65334 331.23742 242.34119 326.31944 233.70508 320.59375 C 234.39246 318.37032 235.41992 316.19674 237.15039 314.44727 L 265.43359 286.16406 L 225.83594 246.56641 L 197.55273 274.84961 C 195.87116 276.57953 193.85166 277.87062 191.66406 278.68555 C 185.82735 269.94018 180.82332 260.49613 176.72852 250.41992 L 203.20898 223.9375 L 177.75391 198.48242 C 171.33883 192.26354 171.25843 181.99547 177.57617 175.67773 C 183.89391 169.35999 194.16198 169.44039 200.38086 175.85547 L 225.83594 201.31055 L 259.77734 167.36914 L 234.32227 141.91406 C 227.90719 135.69518 227.82679 125.42711 234.14453 119.10938 C 240.46227 112.79163 250.73034 112.87203 256.94922 119.28711 L 282.4043 144.74219 L 310.68945 116.45703 C 313.58755 113.47631 317.53196 111.74052 321.6875 111.61719 z M 160.41602 119.69922 C 158.39474 128.70422 156.81178 137.81718 155.71094 146.98633 C 155.70805 147.01038 155.70601 147.03454 155.70312 147.05859 C 155.50358 148.72461 155.32119 150.39305 155.1543 152.0625 C 155.14283 152.17706 155.1324 152.29168 155.12109 152.40625 C 154.95877 154.05261 154.81149 155.70054 154.68164 157.34961 C 154.67536 157.42913 154.66636 157.50837 154.66016 157.58789 C 154.39284 161.02477 154.19589 164.46553 154.07422 167.91016 C 154.06547 168.15622 154.06073 168.40235 154.05273 168.64844 C 154.00786 170.04072 153.97345 171.43329 153.95312 172.82617 C 153.94629 173.2871 153.94552 173.74801 153.94141 174.20898 C 153.93115 175.38785 153.92981 176.56711 153.9375 177.74609 C 153.9409 178.28258 153.94401 178.81899 153.95117 179.35547 C 153.96649 180.48913 153.99316 181.62237 154.02539 182.75586 C 154.04065 183.29491 154.05118 183.83407 154.07031 184.37305 C 154.12793 185.99135 154.19818 187.60926 154.29102 189.22656 C 154.61353 199.25411 155.83222 209.25342 157.87109 219.08789 C 172.67001 303.9461 235.14087 354.89379 324.9082 357.75781 C 326.4369 357.83419 327.96742 357.89962 329.49805 357.94531 C 329.78181 357.95383 330.0658 357.95737 330.34961 357.96484 C 332.03974 358.00906 333.73057 358.03359 335.42188 358.04102 C 335.71357 358.04235 336.00516 358.04858 336.29688 358.04883 C 338.06596 358.05002 339.83451 358.02467 341.60352 357.98633 C 342.04177 357.97692 342.47976 357.96884 342.91797 357.95703 C 344.56855 357.91221 346.21795 357.85007 347.86719 357.77148 C 348.46501 357.74312 349.0626 357.71244 349.66016 357.67969 C 351.2348 357.59305 352.80863 357.49377 354.38086 357.37695 C 354.96404 357.33375 355.54614 357.28365 356.12891 357.23633 C 357.46417 357.12763 358.79814 357.01094 360.13086 356.88086 C 360.91158 356.80481 361.691 356.72394 362.4707 356.64062 C 363.29263 356.55264 364.11487 356.46514 364.93555 356.36914 L 364.94727 356.35742 C 374.15152 355.282 383.27643 353.72249 392.22852 351.6875 C 348.31287 395.61951 304.39095 439.5452 260.46484 483.4668 L 253.43359 483.4668 L 225.14844 483.4668 C 159.61003 417.92834 94.071613 352.38997 28.533203 286.85156 L 28.533203 258.56445 L 28.533203 251.53516 C 67.449273 212.65565 106.30428 173.71507 145.23047 134.8457 L 160.41602 119.69922 z M 282.4043 189.99609 L 248.46289 223.9375 L 288.0625 263.53711 L 322.00391 229.5957 L 282.4043 189.99609 z "
       transform="translate(0,540.36219)"
       id="path6296" />
  </g>
</svg>
