<?xml version="1.0" encoding="UTF-8" standalone="no"?>
<!-- Created with Inkscape (http://www.inkscape.org/) -->
<svg xmlns:dc="http://purl.org/dc/elements/1.1/" xmlns:cc="http://creativecommons.org/ns#" xmlns:rdf="http://www.w3.org/1999/02/22-rdf-syntax-ns#" xmlns:svg="http://www.w3.org/2000/svg" xmlns="http://www.w3.org/2000/svg" xmlns:xlink="http://www.w3.org/1999/xlink" xmlns:sodipodi="http://sodipodi.sourceforge.net/DTD/sodipodi-0.dtd" xmlns:inkscape="http://www.inkscape.org/namespaces/inkscape" width="512" height="512" id="svg2" version="1.1" inkscape:version="0.48.4 r9939" sodipodi:docname="logo-photo.svg" enable-background="new" inkscape:export-filename="/home/jz/Dropbox/Putaitu/Branding/logo-2d.png" inkscape:export-xdpi="45" inkscape:export-ydpi="45">
  <defs id="defs4">
    <linearGradient id="linearGradient4097">
      <stop id="stop4115" offset="0" style="stop-color:#e4f6f8;stop-opacity:1;"/>
      <stop style="stop-color:#e4f6f8;stop-opacity:1;" offset="0.75" id="stop4117"/>
      <stop style="stop-color:#6acfe2;stop-opacity:1;" offset="1" id="stop4101"/>
    </linearGradient>
    <linearGradient id="linearGradient4089">
      <stop style="stop-color:#9c256b;stop-opacity:1;" offset="0" id="stop4091"/>
      <stop style="stop-color:#d58320;stop-opacity:1;" offset="1" id="stop4093"/>
    </linearGradient>
    <linearGradient id="linearGradient11439">
      <stop style="stop-color:#f4f2f5;stop-opacity:1;" offset="0" id="stop11442"/>
      <stop id="stop11448" offset="0.80000001" style="stop-color:#f4f2f5;stop-opacity:1;"/>
      <stop style="stop-color:#d1f2f6;stop-opacity:1" offset="1" id="stop11444"/>
    </linearGradient>
    <linearGradient inkscape:collect="always" xlink:href="#linearGradient11287-0" id="linearGradient11294" x1="512" y1="512" x2="0" y2="0" gradientUnits="userSpaceOnUse"/>
    <radialGradient inkscape:collect="always" xlink:href="#linearGradient11439" id="radialGradient11446" cx="256" cy="256" fx="256" fy="256" r="240" gradientUnits="userSpaceOnUse" gradientTransform="translate(2.6885199e-5,-7.2434059e-6)"/>
    <linearGradient y2="250.55739" x2="263.48145" y1="25.149981" x1="263.48145" gradientTransform="matrix(0.70982585,0,0,0.70982585,68.974066,78.147898)" gradientUnits="userSpaceOnUse" id="linearGradient3823-0" xlink:href="#linearGradient6920-5-2" inkscape:collect="always"/>
    <linearGradient id="linearGradient6920-5-2">
      <stop style="stop-color:#ffffff;stop-opacity:1;" offset="0" id="stop6922-2-6"/>
      <stop style="stop-color:#ffffff;stop-opacity:0;" offset="1" id="stop6924-6-9"/>
    </linearGradient>
    <linearGradient inkscape:collect="always" id="linearGradient6920-4">
      <stop style="stop-color:#f94619;stop-opacity:1" offset="0" id="stop6922-90"/>
      <stop style="stop-color:#f9763a;stop-opacity:1" offset="1" id="stop6924-9"/>
    </linearGradient>
    <linearGradient y2="144" x2="192" y1="304" x1="320" gradientTransform="matrix(0.79258817,0,0,0.79258817,47.16773,57.411187)" gradientUnits="userSpaceOnUse" id="linearGradient3863" xlink:href="#linearGradient6920-4" inkscape:collect="always"/>
    <linearGradient inkscape:collect="always" id="linearGradient11287-0">
      <stop style="stop-color:#0a5b0e;stop-opacity:1" offset="0" id="stop11289-2"/>
      <stop style="stop-color:#27575b;stop-opacity:1" offset="1" id="stop11291-0"/>
    </linearGradient>
    <linearGradient y2="0" x2="0" y1="512" x1="512" gradientUnits="userSpaceOnUse" id="linearGradient3036" xlink:href="#linearGradient11287-0" inkscape:collect="always"/>
    <linearGradient inkscape:collect="always" xlink:href="#linearGradient4089" id="linearGradient4095" x1="256" y1="0" x2="256" y2="512" gradientUnits="userSpaceOnUse"/>
    <linearGradient inkscape:collect="always" xlink:href="#linearGradient4089" id="linearGradient4111" x1="256" y1="0" x2="256" y2="512" gradientUnits="userSpaceOnUse"/>
    <radialGradient inkscape:collect="always" xlink:href="#linearGradient4097" id="radialGradient4113" cx="256" cy="256" fx="256" fy="256" r="216" gradientUnits="userSpaceOnUse"/>
  </defs>
  <sodipodi:namedview id="base" pagecolor="#ffffff" bordercolor="#666666" borderopacity="1.0" inkscape:pageopacity="0.0" inkscape:pageshadow="2" inkscape:zoom="0.73666759" inkscape:cx="319.77926" inkscape:cy="145.36953" inkscape:document-units="px" inkscape:current-layer="layer2" showgrid="true" inkscape:window-width="1869" inkscape:window-height="1055" inkscape:window-x="51" inkscape:window-y="0" inkscape:window-maximized="1" showguides="true" inkscape:guide-bbox="true" inkscape:snap-global="true">
    <inkscape:grid type="xygrid" id="grid3753" empspacing="8" visible="true" enabled="true" snapvisiblegridlinesonly="true" spacingx="2px" spacingy="2px"/>
  </sodipodi:namedview>
  <metadata id="metadata7">
    <rdf:RDF>
      <cc:Work rdf:about="">
        <dc:format>image/svg+xml</dc:format>
        <dc:type rdf:resource="http://purl.org/dc/dcmitype/StillImage"/>
        <dc:title/>
      </cc:Work>
    </rdf:RDF>
  </metadata>
  <g inkscape:groupmode="layer" id="layer4" inkscape:label="main" style="display:inline">
    <g inkscape:groupmode="layer" id="layer3" inkscape:label="bg"/>
    <g inkscape:groupmode="layer" id="layer2" inkscape:label="rice" style="display:inline">
      <path id="path17925-7" style="fill:url(#radialGradient11446);fill-opacity:1;stroke:none;display:inline" d="M 448,448 C 416,480 96,480 64,448 32,416 48,80 64,64 80,48 416,32 448,64 c 32,32 32,352 0,384 z" inkscape:connector-curvature="0" sodipodi:nodetypes="zzzzz"/>
    </g>
    <g inkscape:groupmode="layer" id="layer5" inkscape:label="seaweed" style="display:inline">
      <path style="font-size:medium;font-style:normal;font-variant:normal;font-weight:normal;font-stretch:normal;text-indent:0;text-align:start;text-decoration:none;line-height:normal;letter-spacing:normal;word-spacing:normal;text-transform:none;direction:ltr;block-progression:tb;writing-mode:lr-tb;text-anchor:start;baseline-shift:baseline;color:#000000;fill:url(#linearGradient11294);fill-opacity:1;fill-rule:nonzero;stroke:none;visibility:visible;display:inline;overflow:visible;enable-background:accumulate;font-family:sans-serif" d="M 272,482 C 96,418 128,192 160,160 c 32,-32 160,-32 192,0 32,32 32,160 0,192 -32,32 -97.4555,39.06187 -144,32 -46.5445,-7.06187 96,48 160,0 80,-64 80,-192 0,-256 C 304,80 208,80 144,128 64,192 16,352 224,480" id="path17925" inkscape:connector-curvature="0" sodipodi:nodetypes="czzzzcccc"/>
      <path style="font-size:medium;font-style:normal;font-variant:normal;font-weight:normal;font-stretch:normal;text-indent:0;text-align:start;text-decoration:none;line-height:normal;letter-spacing:normal;word-spacing:normal;text-transform:none;direction:ltr;block-progression:tb;writing-mode:lr-tb;text-anchor:start;baseline-shift:baseline;color:#000000;fill:url(#linearGradient3036);fill-opacity:1;fill-rule:nonzero;stroke:none;visibility:visible;display:inline;overflow:visible;enable-background:accumulate;font-family:sans-serif" d="m 48,48 c -32,32 -32,384 0,416 32,32 384,32 416,0 C 496,432 496,80 464,48 432,16 80,16 48,48 z M 80,432 C 32,384 32,128 80,80 c 48,-48 304,-48 352,0 48,48 48,304 0,352 -48,48 -304,48 -352,0 z" id="path17925-1" inkscape:connector-curvature="0" sodipodi:nodetypes="zzzzzzzzzz"/>
    </g>
    <g inkscape:groupmode="layer" id="layer1" inkscape:label="salmon">
      <path style="fill:url(#linearGradient3863);fill-opacity:1;fill-rule:evenodd;stroke:none;display:inline" d="m 176,176 c 32,-32 128,-32 160,0 32,32 32,128 0,160 -32,32 -128,32 -160,0 -32,-32 -32,-128 0,-160 z" id="path9636" inkscape:connector-curvature="0" sodipodi:nodetypes="zzzzz"/>
      <path style="opacity:0.25;fill:#ffffff;fill-opacity:1;fill-rule:evenodd;stroke:none;display:inline" d="m 256,152 c 34.55933,1.18387 48,-8 80,24 32,32 32,128 0,160 -32,32 -55.5767,23.12152 -80,24 112,-104 -112,-104 0,-208 z" id="path9636-9" inkscape:connector-curvature="0" sodipodi:nodetypes="czzcc"/>
      <path style="fill:url(#linearGradient3823-0);fill-opacity:1;fill-rule:evenodd;stroke:none;display:inline" d="m 184.35363,184.35363 c 28.65855,-28.65855 114.63419,-28.65855 143.29274,0 28.65855,28.65855 28.65855,114.63419 0,143.29274 -28.65855,28.65855 -114.63419,28.65855 -143.29274,0 -28.65855,-28.65855 -28.65855,-114.63419 0,-143.29274 z" id="path9636-95" inkscape:connector-curvature="0" sodipodi:nodetypes="zzzzz"/>
    </g>
  </g>
  <g inkscape:label="photo" id="g3052" inkscape:groupmode="layer" style="display:none">
    <g inkscape:label="bg" id="g3054" inkscape:groupmode="layer"/>
    <g style="display:inline" inkscape:label="rice" id="g3056" inkscape:groupmode="layer">
      <path sodipodi:nodetypes="zzzzz" inkscape:connector-curvature="0" d="M 448,448 C 416,480 96,480 64,448 32,416 32,96 64,64 96,32 416,32 448,64 c 32,32 32,352 0,384 z" style="fill:url(#radialGradient4113);fill-opacity:1;stroke:none;display:inline" id="path3058"/>
    </g>
    <g style="display:inline" inkscape:label="seaweed" id="g3060" inkscape:groupmode="layer">
      <path sodipodi:nodetypes="czzzzcccc" inkscape:connector-curvature="0" id="path3062" d="M 272,482 C 96,418 128,192 160,160 c 32,-32 160,-32 192,0 32,32 32,160 0,192 -32,32 -97.4555,39.06187 -144,32 -46.5445,-7.06187 96,48 160,0 80,-64 80,-192 0,-256 C 304,80 208,80 144,128 64,192 16,352 224,480" style="font-size:medium;font-style:normal;font-variant:normal;font-weight:normal;font-stretch:normal;text-indent:0;text-align:start;text-decoration:none;line-height:normal;letter-spacing:normal;word-spacing:normal;text-transform:none;direction:ltr;block-progression:tb;writing-mode:lr-tb;text-anchor:start;baseline-shift:baseline;color:#000000;fill:url(#linearGradient4111);fill-opacity:1;fill-rule:nonzero;stroke:none;visibility:visible;display:inline;overflow:visible;enable-background:accumulate;font-family:sans-serif"/>
      <path sodipodi:nodetypes="zzzzzzzzzz" inkscape:connector-curvature="0" id="path3064" d="m 48,48 c -32,32 -32,384 0,416 32,32 384,32 416,0 C 496,432 496,80 464,48 432,16 80,16 48,48 z M 80,432 C 32,384 32,128 80,80 c 48,-48 304,-48 352,0 48,48 48,304 0,352 -48,48 -304,48 -352,0 z" style="font-size:medium;font-style:normal;font-variant:normal;font-weight:normal;font-stretch:normal;text-indent:0;text-align:start;text-decoration:none;line-height:normal;letter-spacing:normal;word-spacing:normal;text-transform:none;direction:ltr;block-progression:tb;writing-mode:lr-tb;text-anchor:start;baseline-shift:baseline;color:#000000;fill:url(#linearGradient4095);fill-opacity:1;fill-rule:nonzero;stroke:none;visibility:visible;display:inline;overflow:visible;enable-background:accumulate;font-family:sans-serif"/>
    </g>
    <g inkscape:label="salmon" id="g3066" inkscape:groupmode="layer">
      <path sodipodi:nodetypes="zzzzz" inkscape:connector-curvature="0" id="path3068" d="m 176,176 c 32,-32 128,-32 160,0 32,32 32,128 0,160 -32,32 -128,32 -160,0 -32,-32 -32,-128 0,-160 z" style="fill:#4b150e;fill-opacity:1;fill-rule:evenodd;stroke:none;display:inline"/>
      <path sodipodi:nodetypes="ccccc" inkscape:connector-curvature="0" id="path3070" d="m 256,152 c 0,0 54,-2 80,24 32,32 32,128 0,160 -20,20 -55.5767,23.12152 -80,24 112,-104 -112,-104 0,-208 z" style="opacity:0.2;fill:#ffffff;fill-opacity:1;fill-rule:evenodd;stroke:none;display:inline"/>
      <path sodipodi:nodetypes="zzzzz" inkscape:connector-curvature="0" id="path3072" d="m 184.35363,184.35363 c 28.65855,-28.65855 114.63419,-28.65855 143.29274,0 28.65855,28.65855 28.65855,114.63419 0,143.29274 -28.65855,28.65855 -114.63419,28.65855 -143.29274,0 -28.65855,-28.65855 -28.65855,-114.63419 0,-143.29274 z" style="fill:url(#linearGradient3823-0);fill-opacity:1;fill-rule:evenodd;stroke:none;display:inline"/>
    </g>
  </g>
</svg>